<svg width="772" height="250" viewBox="0 0 772 250" xmlns="http://www.w3.org/2000/svg" style="background:#DA3743"><title>banner</title><desc>Created with Sketch.</desc><path d="M592 95.998c0-6.625 5.369-11.998 11.991-11.998s11.993 5.373 11.993 11.998c0 6.629-5.371 12.002-11.993 12.002s-11.991-5.373-11.991-12.002zm84.232 12.002c-6.623 0-11.991-5.373-11.991-12.001 0-6.626 5.368-11.999 11.991-11.999 6.622 0 11.993 5.373 11.993 11.999 0 6.628-5.371 12.001-11.993 12.001zm.001-60c-26.492 0-47.968 21.491-47.968 47.999 0 26.511 21.476 48.001 47.968 48.001 26.493 0 47.968-21.49 47.968-48.001 0-26.508-21.475-47.999-47.968-47.999z" fill="#fff"/></svg>