<svg width="128" height="128" viewBox="0 0 128 128" xmlns="http://www.w3.org/2000/svg" style="background:#DA3743"><title>icon</title><desc>Created with Sketch.</desc><path d="M31 63.999c0-3.313 2.684-5.999 5.995-5.999s5.996 2.686 5.996 5.999c0 3.315-2.685 6.001-5.996 6.001-3.311 0-5.995-2.686-5.995-6.001zm42.116 6.001c-3.311 0-5.995-2.686-5.995-6.001 0-3.313 2.684-5.999 5.995-5.999s5.996 2.686 5.996 5.999c0 3.314-2.685 6.001-5.996 6.001zm.001-30c-13.246 0-23.984 10.745-23.984 23.999 0 13.256 10.738 24.001 23.984 24.001 13.246 0 23.984-10.745 23.984-24.001 0-13.254-10.737-23.999-23.984-23.999z" fill="#fff"/></svg>